<svg xmlns="http://www.w3.org/2000/svg" viewBox="0 0 300 406" width="300" height="406" role="img" aria-label="FUDICIA mini logo">
  <path d="M 286 14 L 74 14 L 59 18 L 45 25 L 31 37 L 25 45 L 19 57 L 15 70 L 14 79 L 14 332 L 79 268 L 79 213 L 135 212 L 187 146 L 82 146 L 79 143 L 79 84 L 82 81 L 234 81 Z" fill="#FFFFFF" fill-rule="evenodd"/>
  <path d="M 272 142 L 227 185 L 227 238 L 225 240 L 162 239 L 161 298 L 90 299 L 90 356 L 14 357 L 13 395 L 136 395 L 137 337 L 207 337 L 208 278 L 271 278 Z" fill="#82BD3A" fill-rule="evenodd"/>
</svg>
