<svg xmlns="http://www.w3.org/2000/svg" viewBox="0 0 1651 406" width="1651" height="406" role="img" aria-label="FUDICIA logo">
  <path d="M 1452 61 L 1350 355 L 1424 355 L 1441 304 L 1444 300 L 1546 300 L 1548 302 L 1565 355 L 1640 355 L 1539 61 Z M 1494 140 L 1497 142 L 1529 241 L 1528 244 L 1463 244 L 1461 242 Z M 1263 61 L 1263 355 L 1334 355 L 1334 61 Z M 868 61 L 868 355 L 939 355 L 939 61 Z M 586 61 L 586 355 L 723 354 L 740 351 L 760 345 L 779 336 L 799 322 L 814 307 L 824 293 L 832 278 L 841 251 L 845 225 L 845 192 L 841 166 L 830 135 L 814 110 L 803 98 L 778 80 L 759 71 L 735 64 L 713 61 Z M 657 122 L 707 122 L 727 127 L 743 136 L 752 144 L 760 154 L 766 165 L 772 182 L 774 193 L 774 224 L 771 239 L 767 251 L 755 271 L 746 280 L 730 290 L 708 296 L 656 295 Z M 304 61 L 304 254 L 307 275 L 312 291 L 325 314 L 340 330 L 364 346 L 390 356 L 411 360 L 442 361 L 468 357 L 492 349 L 517 334 L 531 321 L 541 308 L 551 288 L 556 270 L 557 61 L 486 61 L 485 259 L 480 273 L 468 288 L 455 296 L 440 300 L 417 299 L 401 293 L 387 281 L 378 264 L 375 247 L 375 61 Z M 1091 56 L 1057 64 L 1032 76 L 1016 87 L 990 115 L 975 143 L 967 169 L 963 202 L 965 240 L 973 272 L 983 293 L 996 312 L 1018 333 L 1039 346 L 1050 351 L 1073 358 L 1099 361 L 1128 360 L 1152 355 L 1168 349 L 1190 337 L 1207 323 L 1218 310 L 1230 289 L 1237 268 L 1238 254 L 1168 254 L 1165 263 L 1156 279 L 1144 290 L 1125 298 L 1114 300 L 1101 300 L 1086 297 L 1074 292 L 1065 286 L 1051 270 L 1042 251 L 1038 235 L 1036 220 L 1037 191 L 1041 171 L 1050 150 L 1054 144 L 1067 131 L 1081 123 L 1094 119 L 1115 118 L 1132 122 L 1149 132 L 1160 145 L 1164 152 L 1167 162 L 1238 162 L 1238 153 L 1233 132 L 1224 113 L 1209 94 L 1189 78 L 1161 64 L 1143 59 L 1127 56 Z M 286 14 L 74 14 L 59 18 L 45 25 L 31 37 L 25 45 L 19 57 L 15 70 L 14 79 L 14 332 L 79 268 L 79 213 L 135 212 L 187 146 L 82 146 L 79 143 L 79 84 L 82 81 L 234 81 Z" fill="#FFFFFF" fill-rule="evenodd"/>
  <path d="M 272 142 L 227 185 L 227 238 L 225 240 L 162 239 L 161 298 L 90 299 L 90 356 L 14 357 L 13 395 L 136 395 L 137 337 L 207 337 L 208 278 L 271 278 Z" fill="#82BD3A" fill-rule="evenodd"/>
</svg>