<svg xmlns="http://www.w3.org/2000/svg" viewBox="0 0 520 180" role="img" aria-labelledby="title desc">
  <title id="title">STEG Tunisie logo — SVG recreation</title>
  <desc id="desc">Clean SVG recreation inspired by the Société Tunisienne de l'Électricité et du Gaz visual identity.</desc>
  <rect width="520" height="180" fill="none"/>

  <g transform="translate(38 10)">
    <path d="M83.7 5.7C50.8 34.6 28.6 78.1 27.6 111.3c-.9 31.1 17.4 47.1 46.3 39.1-17.8-4.8-27.9-20.8-25.7-43.7C51.5 72.4 64.6 38.5 83.7 5.7Z" fill="#0072bc"/>
    <path d="M85.2 9.4C66.6 40.9 55.6 72.9 54.2 101.4c-1.3 26 7.7 42.3 25.4 47.4-7.9 3.1-18.6 3.2-28.4-.4-18.7-6.9-29.2-24.9-28.5-48.6C23.8 64.6 49.2 25.6 85.2 9.4Z" fill="#0088cf" opacity=".25"/>
    <path d="M101.8 30.2c8.5 8.8 7.5 18.1-3.3 25.7l-9.4 6.6c-4.5 3.2-4.6 7.2-.6 10.6l10.7 9.1c10.7 9.1 8.1 22-5.5 28.7l-9.7 4.8c-3.8 1.9-4.6 5.9-1.1 8.5l18.3 13.9c-22.8-2.1-37.4-13.2-35.8-27.4.8-6.9 5.5-12.1 14.9-16.7l9.8-4.8c4.3-2.1 4.8-6.1 1.2-9.2L80.6 71.5c-10.1-8.6-7.8-20.8 5.2-27.1l16-14.2Z" fill="#ee1b24"/>
  </g>

  <g fill="#0072bc" font-family="Arial, Helvetica, sans-serif">
    <text x="182" y="82" font-size="62" font-weight="800" letter-spacing="7">STEG</text>
    <text x="184" y="118" font-size="18" font-weight="700" letter-spacing="1.4">TUNISIE</text>
    <text x="184" y="148" font-size="15" font-weight="600">Société Tunisienne de l'Électricité et du Gaz</text>
  </g>
</svg>
